<svg width="81" height="100" viewBox="0 0 81 100" fill="none" xmlns="http://www.w3.org/2000/svg">
<path d="M62.6582 36.3491V65.3371C62.6582 66.0789 62.5759 66.8823 62.4111 67.7475C62.2256 68.5922 61.9474 69.4371 61.5766 70.2817C61.2057 71.1058 60.7319 71.8991 60.155 72.6611C59.5576 73.4235 58.8468 74.1035 58.0228 74.701C57.1778 75.2779 56.2095 75.7412 55.1177 76.0915C54.005 76.4418 52.7585 76.6168 51.3781 76.6168H29.622C28.8803 76.6168 28.0871 76.5346 27.2424 76.3697C26.3771 76.1842 25.5324 75.9061 24.7082 75.5352C23.8636 75.1646 23.06 74.6805 22.2977 74.083C21.5355 73.4855 20.8659 72.7744 20.289 71.9504C19.6915 71.1058 19.2177 70.1374 18.8674 69.0456C18.5172 67.9536 18.342 66.7175 18.342 65.3371V36.3491H26.3771V65.3371C26.3771 66.3877 26.6552 67.1912 27.2115 67.7475C27.7677 68.3039 28.5919 68.582 29.6838 68.582H51.3781C52.4085 68.582 53.212 68.3039 53.7889 67.7475C54.3449 67.1706 54.6231 66.3672 54.6231 65.3371V36.3491H62.6582Z" fill="#EDF2F4"/>
<path d="M62.1504 16.4446L43.2649 54.9108C42.9681 55.5041 42.5231 55.9769 41.9298 56.3291C41.3551 56.7 40.7152 56.8855 40.0108 56.8855C39.3247 56.8855 38.6848 56.7 38.0915 56.3291C37.5168 55.9769 37.0716 55.5041 36.7564 54.9108L17.8989 16.4446H25.9927L40.0108 45.176L54.0842 16.4446H62.1504Z" fill="#EDF2F4"/>
<path d="M7.25946 96.6044C6.58225 96.6044 6.00314 96.4652 5.52212 96.1867C5.04111 95.9082 4.67086 95.5126 4.41136 95C4.1582 94.481 4.03162 93.8702 4.03162 93.1677C4.03162 92.6424 4.1044 92.1709 4.24997 91.7531C4.39554 91.3291 4.6044 90.9683 4.87655 90.6709C5.15503 90.3671 5.49364 90.136 5.89238 89.9778C6.29744 89.8196 6.75314 89.7405 7.25946 89.7405C7.63288 89.7405 7.99048 89.7911 8.33225 89.8924C8.68035 89.9936 8.98098 90.1392 9.23415 90.3291C9.34174 90.3987 9.41136 90.4842 9.44301 90.5854C9.48098 90.6804 9.48731 90.7721 9.462 90.8607C9.44301 90.9493 9.40187 91.0253 9.33858 91.0886C9.27529 91.1455 9.19301 91.1772 9.09174 91.1835C8.99681 91.1899 8.89238 91.155 8.77845 91.0791C8.56959 90.9209 8.33858 90.8038 8.08541 90.7278C7.83225 90.6519 7.56643 90.6139 7.28795 90.6139C6.80693 90.6139 6.40187 90.7152 6.07276 90.9177C5.74364 91.1139 5.49364 91.4019 5.32276 91.7816C5.15187 92.1614 5.06643 92.6234 5.06643 93.1677C5.06643 93.712 5.15187 94.1772 5.32276 94.5633C5.49364 94.943 5.74364 95.2341 6.07276 95.4367C6.40187 95.6329 6.80693 95.731 7.28795 95.731C7.56643 95.731 7.83225 95.693 8.08541 95.6171C8.34491 95.5348 8.58858 95.4145 8.81643 95.2563C8.93035 95.1867 9.03162 95.155 9.12022 95.1614C9.21516 95.1677 9.29427 95.1993 9.35757 95.2563C9.42086 95.3133 9.462 95.3861 9.48098 95.4747C9.5063 95.5569 9.50314 95.6455 9.47149 95.7405C9.44617 95.8291 9.38605 95.905 9.29111 95.9683C9.03162 96.1772 8.72465 96.3354 8.37022 96.443C8.01579 96.5506 7.64554 96.6044 7.25946 96.6044ZM14.4859 96.5854C14.3466 96.5854 14.2295 96.5538 14.1346 96.4905C14.046 96.4209 13.9732 96.3196 13.9162 96.1867L11.3624 90.405C11.3118 90.2721 11.2991 90.1582 11.3245 90.0633C11.3498 89.9683 11.4004 89.8955 11.4764 89.8449C11.5586 89.788 11.6567 89.7595 11.7707 89.7595C11.9162 89.7595 12.027 89.7911 12.1029 89.8544C12.1789 89.9177 12.2422 90.0126 12.2928 90.1392L14.6852 95.6835H14.334L16.7074 90.1297C16.7643 90.0095 16.8308 89.9177 16.9067 89.8544C16.989 89.7911 17.0998 89.7595 17.239 89.7595C17.3529 89.7595 17.4447 89.788 17.5143 89.8449C17.5903 89.8955 17.6378 89.9683 17.6567 90.0633C17.6757 90.1582 17.6567 90.2721 17.5998 90.405L15.0555 96.1867C14.9985 96.3196 14.9257 96.4209 14.8371 96.4905C14.7485 96.5538 14.6314 96.5854 14.4859 96.5854ZM26.9403 96.6044C26.2631 96.6044 25.684 96.4652 25.2029 96.1867C24.7219 95.9082 24.3517 95.5126 24.0922 95C23.839 94.481 23.7124 93.8702 23.7124 93.1677C23.7124 92.6424 23.7852 92.1709 23.9308 91.7531C24.0764 91.3291 24.2852 90.9683 24.5574 90.6709C24.8359 90.3671 25.1745 90.136 25.5732 89.9778C25.9783 89.8196 26.434 89.7405 26.9403 89.7405C27.3137 89.7405 27.6713 89.7911 28.0131 89.8924C28.3612 89.9936 28.6618 90.1392 28.915 90.3291C29.0226 90.3987 29.0922 90.4842 29.1238 90.5854C29.1618 90.6804 29.1681 90.7721 29.1428 90.8607C29.1238 90.9493 29.0827 91.0253 29.0194 91.0886C28.9561 91.1455 28.8738 91.1772 28.7726 91.1835C28.6776 91.1899 28.5732 91.155 28.4593 91.0791C28.2504 90.9209 28.0194 90.8038 27.7662 90.7278C27.5131 90.6519 27.2472 90.6139 26.9688 90.6139C26.4878 90.6139 26.0827 90.7152 25.7536 90.9177C25.4245 91.1139 25.1745 91.4019 25.0036 91.7816C24.8327 92.1614 24.7472 92.6234 24.7472 93.1677C24.7472 93.712 24.8327 94.1772 25.0036 94.5633C25.1745 94.943 25.4245 95.2341 25.7536 95.4367C26.0827 95.6329 26.4878 95.731 26.9688 95.731C27.2472 95.731 27.5131 95.693 27.7662 95.6171C28.0257 95.5348 28.2694 95.4145 28.4972 95.2563C28.6112 95.1867 28.7124 95.155 28.801 95.1614C28.896 95.1677 28.9751 95.1993 29.0384 95.2563C29.1017 95.3133 29.1428 95.3861 29.1618 95.4747C29.1871 95.5569 29.184 95.6455 29.1523 95.7405C29.127 95.8291 29.0669 95.905 28.9719 95.9683C28.7124 96.1772 28.4055 96.3354 28.051 96.443C27.6966 96.5506 27.3264 96.6044 26.9403 96.6044ZM34.481 96.6044C33.8481 96.6044 33.2943 96.4652 32.8196 96.1867C32.3512 95.9019 31.9873 95.5031 31.7278 94.9905C31.4748 94.4715 31.3482 93.8639 31.3482 93.1677C31.3482 92.6424 31.421 92.1709 31.5665 91.7531C31.712 91.3291 31.9209 90.9683 32.193 90.6709C32.4652 90.3671 32.7943 90.136 33.1803 89.9778C33.5664 89.8196 34 89.7405 34.481 89.7405C35.1202 89.7405 35.674 89.8797 36.1424 90.1582C36.6107 90.4367 36.9715 90.8323 37.2247 91.3449C37.4841 91.8576 37.6139 92.462 37.6139 93.1582C37.6139 93.6835 37.5411 94.1582 37.3955 94.5823C37.25 95.0063 37.0379 95.3702 36.7595 95.674C36.4873 95.9778 36.1582 96.2088 35.7721 96.3671C35.386 96.5253 34.9557 96.6044 34.481 96.6044ZM34.481 95.75C34.924 95.75 35.3006 95.6487 35.6107 95.4462C35.9272 95.2436 36.1677 94.9493 36.3322 94.5633C36.5031 94.1772 36.5886 93.712 36.5886 93.1677C36.5886 92.3512 36.405 91.7183 36.0379 91.269C35.6709 90.8196 35.1519 90.5949 34.481 90.5949C34.0379 90.5949 33.6582 90.6962 33.3417 90.8987C33.0316 91.0949 32.7911 91.3861 32.6202 91.7721C32.4557 92.1582 32.3734 92.6234 32.3734 93.1677C32.3734 93.9778 32.5569 94.6107 32.924 95.0664C33.2974 95.5221 33.8164 95.75 34.481 95.75ZM40.8265 96.5854C40.681 96.5854 40.5671 96.5443 40.4848 96.462C40.4025 96.3797 40.3614 96.2626 40.3614 96.1107V90.2531C40.3614 90.0949 40.3993 89.9747 40.4753 89.8924C40.5576 89.8038 40.6652 89.7595 40.7981 89.7595C40.912 89.7595 40.9974 89.7816 41.0544 89.8259C41.1177 89.8639 41.1905 89.9367 41.2728 90.0443L45.1841 95.1993H44.9468V90.2247C44.9468 90.0791 44.9848 89.9652 45.0607 89.8829C45.143 89.8006 45.2569 89.7595 45.4025 89.7595C45.5544 89.7595 45.6683 89.8006 45.7443 89.8829C45.8202 89.9652 45.8582 90.0791 45.8582 90.2247V96.1202C45.8582 96.2658 45.8202 96.3797 45.7443 96.462C45.6747 96.5443 45.5797 96.5854 45.4595 96.5854C45.3455 96.5854 45.2506 96.5633 45.1747 96.519C45.105 96.4747 45.0291 96.3987 44.9468 96.2911L41.0544 91.1455H41.2728V96.1107C41.2728 96.2626 41.2348 96.3797 41.1588 96.462C41.0829 96.5443 40.9721 96.5854 40.8265 96.5854ZM49.306 96.5854C49.1604 96.5854 49.0465 96.5443 48.9642 96.462C48.8819 96.3797 48.8408 96.2626 48.8408 96.1107V90.2531C48.8408 90.0949 48.8788 89.9747 48.9547 89.8924C49.037 89.8038 49.1446 89.7595 49.2775 89.7595C49.3914 89.7595 49.4769 89.7816 49.5338 89.8259C49.5971 89.8639 49.6699 89.9367 49.7522 90.0443L53.6636 95.1993H53.4262V90.2247C53.4262 90.0791 53.4642 89.9652 53.5402 89.8829C53.6224 89.8006 53.7364 89.7595 53.8819 89.7595C54.0338 89.7595 54.1478 89.8006 54.2237 89.8829C54.2997 89.9652 54.3376 90.0791 54.3376 90.2247V96.1202C54.3376 96.2658 54.2997 96.3797 54.2237 96.462C54.1541 96.5443 54.0591 96.5854 53.9389 96.5854C53.825 96.5854 53.73 96.5633 53.6541 96.519C53.5845 96.4747 53.5085 96.3987 53.4262 96.2911L49.5338 91.1455H49.7522V96.1107C49.7522 96.2626 49.7142 96.3797 49.6383 96.462C49.5623 96.5443 49.4516 96.5854 49.306 96.5854ZM57.8519 96.519C57.681 96.519 57.5481 96.4747 57.4531 96.386C57.3645 96.2911 57.3202 96.1582 57.3202 95.9873V90.3576C57.3202 90.1867 57.3645 90.0569 57.4531 89.9683C57.5481 89.8734 57.681 89.8259 57.8519 89.8259H61.3171C61.45 89.8259 61.5512 89.8607 61.6209 89.9304C61.6905 89.9936 61.7253 90.0886 61.7253 90.2152C61.7253 90.3481 61.6905 90.4493 61.6209 90.519C61.5512 90.5886 61.45 90.6234 61.3171 90.6234H58.2696V92.7215H61.1082C61.2474 92.7215 61.3487 92.7563 61.412 92.8259C61.4816 92.8955 61.5164 92.9937 61.5164 93.1202C61.5164 93.2531 61.4816 93.3544 61.412 93.424C61.3487 93.4873 61.2474 93.519 61.1082 93.519H58.2696V95.7215H61.3171C61.45 95.7215 61.5512 95.7563 61.6209 95.8259C61.6905 95.8955 61.7253 95.9936 61.7253 96.1202C61.7253 96.2531 61.6905 96.3544 61.6209 96.424C61.5512 96.4873 61.45 96.519 61.3171 96.519H57.8519ZM67.3161 96.6044C66.6389 96.6044 66.0598 96.4652 65.5788 96.1867C65.0978 95.9082 64.7275 95.5126 64.468 95C64.2148 94.481 64.0883 93.8702 64.0883 93.1677C64.0883 92.6424 64.161 92.1709 64.3066 91.7531C64.4522 91.3291 64.661 90.9683 64.9332 90.6709C65.2117 90.3671 65.5503 90.136 65.949 89.9778C66.3541 89.8196 66.8098 89.7405 67.3161 89.7405C67.6895 89.7405 68.0471 89.7911 68.3889 89.8924C68.737 89.9936 69.0376 90.1392 69.2908 90.3291C69.3984 90.3987 69.468 90.4842 69.4996 90.5854C69.5376 90.6804 69.544 90.7721 69.5186 90.8607C69.4996 90.9493 69.4585 91.0253 69.3952 91.0886C69.3319 91.1455 69.2496 91.1772 69.1484 91.1835C69.0535 91.1899 68.949 91.155 68.8351 91.0791C68.6262 90.9209 68.3952 90.8038 68.1421 90.7278C67.8889 90.6519 67.6231 90.6139 67.3446 90.6139C66.8636 90.6139 66.4585 90.7152 66.1294 90.9177C65.8003 91.1139 65.5503 91.4019 65.3794 91.7816C65.2085 92.1614 65.1231 92.6234 65.1231 93.1677C65.1231 93.712 65.2085 94.1772 65.3794 94.5633C65.5503 94.943 65.8003 95.2341 66.1294 95.4367C66.4585 95.6329 66.8636 95.731 67.3446 95.731C67.6231 95.731 67.8889 95.693 68.1421 95.6171C68.4016 95.5348 68.6452 95.4145 68.8731 95.2563C68.987 95.1867 69.0883 95.155 69.1769 95.1614C69.2718 95.1677 69.3509 95.1993 69.4142 95.2563C69.4775 95.3133 69.5186 95.3861 69.5376 95.4747C69.5629 95.5569 69.5598 95.6455 69.5281 95.7405C69.5028 95.8291 69.4427 95.905 69.3478 95.9683C69.0883 96.1772 68.7813 96.3354 68.4269 96.443C68.0724 96.5506 67.7022 96.6044 67.3161 96.6044ZM74.1898 96.5854C74.0316 96.5854 73.9082 96.5411 73.8196 96.4525C73.7373 96.3639 73.6962 96.2405 73.6962 96.0823V90.6519H71.6835C71.5506 90.6519 71.4462 90.6171 71.3702 90.5474C71.2943 90.4715 71.2563 90.3671 71.2563 90.2342C71.2563 90.1012 71.2943 90 71.3702 89.9304C71.4462 89.8607 71.5506 89.8259 71.6835 89.8259H76.6867C76.8259 89.8259 76.9335 89.8607 77.0095 89.9304C77.0854 90 77.1234 90.1012 77.1234 90.2342C77.1234 90.3671 77.0854 90.4715 77.0095 90.5474C76.9335 90.6171 76.8259 90.6519 76.6867 90.6519H74.674V96.0823C74.674 96.2405 74.6329 96.3639 74.5506 96.4525C74.4747 96.5411 74.3544 96.5854 74.1898 96.5854Z" fill="#EDF2F4"/>
</svg>
