<svg width="168" height="50" viewBox="0 0 168 50" fill="none" xmlns="http://www.w3.org/2000/svg">
<path d="M39.3239 22.5222V40.4834C39.3239 40.943 39.2729 41.4408 39.1707 41.9769C39.0558 42.5003 38.8835 43.0238 38.6537 43.5471C38.4239 44.0577 38.1303 44.5493 37.7729 45.0214C37.4027 45.4938 36.9623 45.9152 36.4517 46.2854C35.9282 46.6428 35.3282 46.9299 34.6517 47.1469C33.9623 47.364 33.19 47.4724 32.3347 47.4724H18.8544C18.3948 47.4724 17.9033 47.4214 17.3799 47.3193C16.8438 47.2044 16.3204 47.032 15.8098 46.8022C15.2864 46.5726 14.7885 46.2726 14.3162 45.9024C13.8439 45.5322 13.429 45.0916 13.0716 44.581C12.7014 44.0577 12.4078 43.4577 12.1908 42.7812C11.9737 42.1046 11.8652 41.3387 11.8652 40.4834V22.5222H16.8438V40.4834C16.8438 41.1344 17.0161 41.6322 17.3608 41.9769C17.7055 42.3216 18.2161 42.494 18.8927 42.494H32.3347C32.9731 42.494 33.4709 42.3216 33.8284 41.9769C34.1729 41.6195 34.3453 41.1216 34.3453 40.4834V22.5222H39.3239Z" fill="#2B2D42"/>
<path d="M39.0084 10.1892L27.3068 34.0232C27.1229 34.3908 26.8472 34.6838 26.4795 34.902C26.1235 35.1318 25.727 35.2467 25.2905 35.2467C24.8654 35.2467 24.469 35.1318 24.1013 34.902C23.7452 34.6838 23.4694 34.3908 23.2741 34.0232L11.5898 10.1892H16.6048L25.2905 27.9914L34.0105 10.1892H39.0084Z" fill="#2B2D42"/>
<path d="M62.188 31.192C61.324 31.192 60.5187 31.0533 59.772 30.776C59.036 30.488 58.396 30.0827 57.852 29.56C57.308 29.0373 56.8813 28.424 56.572 27.72C56.2733 27.016 56.124 26.2427 56.124 25.4C56.124 24.5573 56.2733 23.784 56.572 23.08C56.8813 22.376 57.308 21.7627 57.852 21.24C58.4067 20.7173 59.052 20.3173 59.788 20.04C60.524 19.752 61.3293 19.608 62.204 19.608C63.1747 19.608 64.0493 19.7787 64.828 20.12C65.6173 20.4507 66.2787 20.9413 66.812 21.592L65.148 23.128C64.764 22.6907 64.3373 22.3653 63.868 22.152C63.3987 21.928 62.8867 21.816 62.332 21.816C61.8093 21.816 61.3293 21.9013 60.892 22.072C60.4547 22.2427 60.076 22.488 59.756 22.808C59.436 23.128 59.1853 23.5067 59.004 23.944C58.8333 24.3813 58.748 24.8667 58.748 25.4C58.748 25.9333 58.8333 26.4187 59.004 26.856C59.1853 27.2933 59.436 27.672 59.756 27.992C60.076 28.312 60.4547 28.5573 60.892 28.728C61.3293 28.8987 61.8093 28.984 62.332 28.984C62.8867 28.984 63.3987 28.8773 63.868 28.664C64.3373 28.44 64.764 28.104 65.148 27.656L66.812 29.192C66.2787 29.8427 65.6173 30.3387 64.828 30.68C64.0493 31.0213 63.1693 31.192 62.188 31.192ZM71.8755 31L67.0435 19.8H69.8435L74.0675 29.72H72.4195L76.7075 19.8H79.2835L74.4355 31H71.8755ZM90.3443 31.192C89.4803 31.192 88.6749 31.0533 87.9283 30.776C87.1923 30.488 86.5523 30.0827 86.0082 29.56C85.4643 29.0373 85.0376 28.424 84.7283 27.72C84.4296 27.016 84.2803 26.2427 84.2803 25.4C84.2803 24.5573 84.4296 23.784 84.7283 23.08C85.0376 22.376 85.4643 21.7627 86.0082 21.24C86.5629 20.7173 87.2083 20.3173 87.9443 20.04C88.6803 19.752 89.4856 19.608 90.3603 19.608C91.3309 19.608 92.2056 19.7787 92.9843 20.12C93.7736 20.4507 94.4349 20.9413 94.9683 21.592L93.3043 23.128C92.9203 22.6907 92.4936 22.3653 92.0243 22.152C91.5549 21.928 91.0429 21.816 90.4883 21.816C89.9656 21.816 89.4856 21.9013 89.0483 22.072C88.6109 22.2427 88.2323 22.488 87.9123 22.808C87.5923 23.128 87.3416 23.5067 87.1603 23.944C86.9896 24.3813 86.9043 24.8667 86.9043 25.4C86.9043 25.9333 86.9896 26.4187 87.1603 26.856C87.3416 27.2933 87.5923 27.672 87.9123 27.992C88.2323 28.312 88.6109 28.5573 89.0483 28.728C89.4856 28.8987 89.9656 28.984 90.4883 28.984C91.0429 28.984 91.5549 28.8773 92.0243 28.664C92.4936 28.44 92.9203 28.104 93.3043 27.656L94.9683 29.192C94.4349 29.8427 93.7736 30.3387 92.9843 30.68C92.2056 31.0213 91.3256 31.192 90.3443 31.192ZM101.924 31.192C101.039 31.192 100.218 31.048 99.4603 30.76C98.7136 30.472 98.0629 30.0667 97.5082 29.544C96.9643 29.0213 96.5376 28.408 96.2283 27.704C95.9296 27 95.7803 26.232 95.7803 25.4C95.7803 24.568 95.9296 23.8 96.2283 23.096C96.5376 22.392 96.9696 21.7787 97.5243 21.256C98.0789 20.7333 98.7296 20.328 99.4763 20.04C100.223 19.752 101.034 19.608 101.908 19.608C102.794 19.608 103.604 19.752 104.34 20.04C105.087 20.328 105.732 20.7333 106.276 21.256C106.831 21.7787 107.263 22.392 107.572 23.096C107.882 23.7893 108.036 24.5573 108.036 25.4C108.036 26.232 107.882 27.0053 107.572 27.72C107.263 28.424 106.831 29.0373 106.276 29.56C105.732 30.072 105.087 30.472 104.34 30.76C103.604 31.048 102.799 31.192 101.924 31.192ZM101.908 28.984C102.41 28.984 102.868 28.8987 103.284 28.728C103.711 28.5573 104.084 28.312 104.404 27.992C104.724 27.672 104.97 27.2933 105.14 26.856C105.322 26.4187 105.412 25.9333 105.412 25.4C105.412 24.8667 105.322 24.3813 105.14 23.944C104.97 23.5067 104.724 23.128 104.404 22.808C104.095 22.488 103.727 22.2427 103.3 22.072C102.874 21.9013 102.41 21.816 101.908 21.816C101.407 21.816 100.943 21.9013 100.516 22.072C100.1 22.2427 99.7323 22.488 99.4123 22.808C99.0923 23.128 98.8416 23.5067 98.6603 23.944C98.4896 24.3813 98.4043 24.8667 98.4043 25.4C98.4043 25.9227 98.4896 26.408 98.6603 26.856C98.8416 27.2933 99.0869 27.672 99.3963 27.992C99.7163 28.312 100.09 28.5573 100.516 28.728C100.943 28.8987 101.407 28.984 101.908 28.984ZM109.984 31V19.8H112.128L118.736 27.864H117.696V19.8H120.256V31H118.128L111.504 22.936H112.544V31H109.984ZM122.906 31V19.8H125.05L131.658 27.864H130.618V19.8H133.178V31H131.05L124.426 22.936H125.466V31H122.906ZM138.212 24.312H143.604V26.328H138.212V24.312ZM138.404 28.92H144.5V31H135.828V19.8H144.292V21.88H138.404V28.92ZM151.922 31.192C151.058 31.192 150.253 31.0533 149.506 30.776C148.77 30.488 148.13 30.0827 147.586 29.56C147.042 29.0373 146.616 28.424 146.306 27.72C146.008 27.016 145.858 26.2427 145.858 25.4C145.858 24.5573 146.008 23.784 146.306 23.08C146.616 22.376 147.042 21.7627 147.586 21.24C148.141 20.7173 148.786 20.3173 149.522 20.04C150.258 19.752 151.064 19.608 151.938 19.608C152.909 19.608 153.784 19.7787 154.562 20.12C155.352 20.4507 156.013 20.9413 156.546 21.592L154.882 23.128C154.498 22.6907 154.072 22.3653 153.602 22.152C153.133 21.928 152.621 21.816 152.066 21.816C151.544 21.816 151.064 21.9013 150.626 22.072C150.189 22.2427 149.81 22.488 149.49 22.808C149.17 23.128 148.92 23.5067 148.738 23.944C148.568 24.3813 148.482 24.8667 148.482 25.4C148.482 25.9333 148.568 26.4187 148.738 26.856C148.92 27.2933 149.17 27.672 149.49 27.992C149.81 28.312 150.189 28.5573 150.626 28.728C151.064 28.8987 151.544 28.984 152.066 28.984C152.621 28.984 153.133 28.8773 153.602 28.664C154.072 28.44 154.498 28.104 154.882 27.656L156.546 29.192C156.013 29.8427 155.352 30.3387 154.562 30.68C153.784 31.0213 152.904 31.192 151.922 31.192ZM160.507 31V21.912H156.923V19.8H166.683V21.912H163.099V31H160.507Z" fill="#2B2D42"/>
</svg>
