<svg width="24" height="24" viewBox="0 0 24 24" fill="none" xmlns="http://www.w3.org/2000/svg">
<path d="M2.35597 23.9986C1.68534 23.9986 1.12501 23.7874 0.675009 23.3648C0.225003 22.9423 0 22.4155 0 21.7844V17.3888L4.68278 12.4157L5.72227 13.3939L1.51768 17.88H22.4823L18.3506 13.4625L19.3901 12.4843L24 17.3888V21.7844C24 22.4155 23.775 22.9423 23.325 23.3648C22.875 23.7874 22.3151 23.9991 21.6455 24L2.35597 23.9986ZM2.35597 22.6267H21.644C21.887 22.6267 22.0974 22.5435 22.2753 22.377C22.4532 22.2106 22.5421 22.013 22.5421 21.7844V19.2505H1.4579V21.7844C1.4579 22.013 1.54684 22.2106 1.7247 22.377C1.90256 22.5444 2.11299 22.6281 2.35597 22.6281M10.389 13.9618L6.03426 9.81186C5.56773 9.37286 5.34078 8.84971 5.35342 8.24242C5.36605 7.63512 5.60515 7.11243 6.07071 6.67434L12.4563 0.66544C12.9229 0.226434 13.4754 0.00464399 14.114 7.1009e-05C14.7525 -0.00450197 15.3051 0.2118 15.7716 0.648977L20.1526 4.77289C20.6191 5.21007 20.8548 5.72682 20.8597 6.32313C20.8645 6.91945 20.6347 7.43666 20.1701 7.87475L13.6941 13.9687C13.2276 14.4068 12.6765 14.6245 12.0408 14.6217C11.4042 14.619 10.8531 14.399 10.3876 13.9618M19.0942 6.93774C19.2429 6.7969 19.3172 6.59477 19.3172 6.33137C19.3172 6.06796 19.2429 5.86584 19.0942 5.72499L14.7671 1.6532C14.6174 1.51327 14.4026 1.4433 14.1227 1.4433C13.8428 1.4433 13.628 1.51327 13.4783 1.6532L7.07229 7.67994C6.92261 7.81987 6.84777 8.022 6.84777 8.28632C6.84777 8.55064 6.92261 8.75276 7.07229 8.89269L11.3993 12.9645C11.548 13.1053 11.7628 13.1757 12.0437 13.1757C12.3246 13.1757 12.5394 13.1053 12.6881 12.9645L19.0942 6.93774Z" fill="#2B2D42"/>
</svg>
