<svg width="24" height="24" viewBox="0 0 24 24" fill="none" xmlns="http://www.w3.org/2000/svg">
<path d="M15.75 4.5H19.5C19.8978 4.5 20.2794 4.65804 20.5607 4.93934C20.842 5.22064 21 5.60218 21 6V21.75C21 22.1478 20.842 22.5294 20.5607 22.8107C20.2794 23.092 19.8978 23.25 19.5 23.25H4.5C4.10218 23.25 3.72064 23.092 3.43934 22.8107C3.15804 22.5294 3 22.1478 3 21.75V6C3 5.60218 3.15804 5.22064 3.43934 4.93934C3.72064 4.65804 4.10218 4.5 4.5 4.5H8.25C8.25 3.50544 8.64509 2.55161 9.34835 1.84835C10.0516 1.14509 11.0054 0.75 12 0.75C12.9946 0.75 13.9484 1.14509 14.6517 1.84835C15.3549 2.55161 15.75 3.50544 15.75 4.5Z" stroke="#EDF2F4" stroke-width="1.2" stroke-linecap="round" stroke-linejoin="round"/>
<path d="M12 4.5C11.7929 4.5 11.625 4.33211 11.625 4.125C11.625 3.91789 11.7929 3.75 12 3.75" stroke="#EDF2F4" stroke-width="1.2"/>
<path d="M12 4.5C12.2071 4.5 12.375 4.33211 12.375 4.125C12.375 3.91789 12.2071 3.75 12 3.75" stroke="#EDF2F4" stroke-width="1.2"/>
<path d="M6.75 10.5H12" stroke="#EDF2F4" stroke-width="1.2" stroke-linecap="round" stroke-linejoin="round"/>
<path d="M15 10.5H17.25" stroke="#EDF2F4" stroke-width="1.2" stroke-linecap="round" stroke-linejoin="round"/>
<path d="M17.25 14.25H12" stroke="#EDF2F4" stroke-width="1.2" stroke-linecap="round" stroke-linejoin="round"/>
<path d="M9 14.25H6.75" stroke="#EDF2F4" stroke-width="1.2" stroke-linecap="round" stroke-linejoin="round"/>
<path d="M6.75 18H12" stroke="#EDF2F4" stroke-width="1.2" stroke-linecap="round" stroke-linejoin="round"/>
<path d="M15 18H17.25" stroke="#EDF2F4" stroke-width="1.2" stroke-linecap="round" stroke-linejoin="round"/>
</svg>
