<svg width="150" height="150" viewBox="0 0 150 150" fill="none" xmlns="http://www.w3.org/2000/svg">
<path d="M56.1934 37.4028L99.3265 12.5L113.74 37.4653L56.1934 37.4028Z" stroke="#2A2D34" stroke-width="10" stroke-linecap="round" stroke-linejoin="round"/>
<path d="M12.5 43.75C12.5 40.2981 15.2982 37.5 18.75 37.5H131.25C134.702 37.5 137.5 40.2981 137.5 43.75V131.25C137.5 134.702 134.702 137.5 131.25 137.5H18.75C15.2982 137.5 12.5 134.702 12.5 131.25V43.75Z" fill="#8D99AE" stroke="#2A2D34" stroke-width="10" stroke-linejoin="round"/>
<path d="M110.156 103.125H137.5V71.875H110.156C101.095 71.875 93.75 78.8706 93.75 87.5C93.75 96.1294 101.095 103.125 110.156 103.125Z" fill="#2B2D42" stroke="white" stroke-width="10" stroke-linejoin="round"/>
<path d="M137.5 51.5625V126.562" stroke="#2A2D34" stroke-width="10" stroke-linecap="round"/>
</svg>
