<svg width="24" height="24" viewBox="0 0 24 24" fill="none" xmlns="http://www.w3.org/2000/svg">
<path d="M10.4077 20.7568V14.3882C10.4077 13.9486 10.7641 13.5921 11.2038 13.5921H20.7566C21.1962 13.5921 21.5527 13.9486 21.5527 14.3882V20.7568C21.5527 21.1964 21.1962 21.5529 20.7566 21.5529H11.2038C10.7641 21.5529 10.4077 21.1964 10.4077 20.7568Z" stroke="#EDF2F4" stroke-width="1.25" stroke-linecap="round" stroke-linejoin="round"/>
<path d="M2.44702 20.7568V14.3882C2.44702 13.9486 2.80344 13.5921 3.24309 13.5921H6.4433C6.88295 13.5921 7.23937 13.9486 7.23937 14.3882V20.7568C7.23937 21.1964 6.88295 21.5529 6.4433 21.5529H3.24309C2.80344 21.5529 2.44702 21.1964 2.44702 20.7568Z" stroke="#EDF2F4" stroke-width="1.25" stroke-linecap="round" stroke-linejoin="round"/>
<path d="M2.44702 9.61179V3.24322C2.44702 2.80356 2.80344 2.44714 3.24309 2.44714H12.7959C13.2356 2.44714 13.592 2.80356 13.592 3.24322V9.61179C13.592 10.0514 13.2356 10.4079 12.7959 10.4079H3.24309C2.80344 10.4079 2.44702 10.0514 2.44702 9.61179Z" stroke="#EDF2F4" stroke-width="1.25" stroke-linecap="round" stroke-linejoin="round"/>
<path d="M16.7603 9.61179V3.24322C16.7603 2.80356 17.1166 2.44714 17.5563 2.44714H20.7565C21.1961 2.44714 21.5526 2.80356 21.5526 3.24322V9.61179C21.5526 10.0514 21.1961 10.4079 20.7565 10.4079H17.5563C17.1166 10.4079 16.7603 10.0514 16.7603 9.61179Z" stroke="#EDF2F4" stroke-width="1.25" stroke-linecap="round" stroke-linejoin="round"/>
</svg>
