<svg width="24" height="24" viewBox="0 0 24 24" fill="none" xmlns="http://www.w3.org/2000/svg">
<path d="M10.4082 20.7567V14.3881C10.4082 13.9485 10.7646 13.592 11.2043 13.592H20.7571C21.1967 13.592 21.5532 13.9485 21.5532 14.3881V20.7567C21.5532 21.1963 21.1967 21.5528 20.7571 21.5528H11.2043C10.7646 21.5528 10.4082 21.1963 10.4082 20.7567Z" stroke="#2B2D42" stroke-width="1.25" stroke-linecap="round" stroke-linejoin="round"/>
<path d="M2.44727 20.7567V14.3881C2.44727 13.9485 2.80368 13.592 3.24334 13.592H6.44354C6.8832 13.592 7.23962 13.9485 7.23962 14.3881V20.7567C7.23962 21.1963 6.8832 21.5528 6.44354 21.5528H3.24334C2.80368 21.5528 2.44727 21.1963 2.44727 20.7567Z" stroke="#2B2D42" stroke-width="1.25" stroke-linecap="round" stroke-linejoin="round"/>
<path d="M2.44727 9.61166V3.24309C2.44727 2.80344 2.80368 2.44702 3.24334 2.44702H12.7962C13.2358 2.44702 13.5923 2.80344 13.5923 3.24309V9.61166C13.5923 10.0513 13.2358 10.4077 12.7962 10.4077H3.24334C2.80368 10.4077 2.44727 10.0513 2.44727 9.61166Z" stroke="#2B2D42" stroke-width="1.25" stroke-linecap="round" stroke-linejoin="round"/>
<path d="M16.7598 9.61166V3.24309C16.7598 2.80344 17.1161 2.44702 17.5559 2.44702H20.7561C21.1957 2.44702 21.5521 2.80344 21.5521 3.24309V9.61166C21.5521 10.0513 21.1957 10.4077 20.7561 10.4077H17.5559C17.1161 10.4077 16.7598 10.0513 16.7598 9.61166Z" stroke="#2B2D42" stroke-width="1.25" stroke-linecap="round" stroke-linejoin="round"/>
</svg>
