<svg width="30" height="30" viewBox="0 0 30 30" fill="none" xmlns="http://www.w3.org/2000/svg">
<path d="M16.4344 15.4969L11.7469 20.1844C11.6136 20.3086 11.4373 20.3762 11.2551 20.373C11.073 20.3698 10.8992 20.296 10.7704 20.1671C10.6415 20.0383 10.5677 19.8645 10.5645 19.6824C10.5613 19.5002 10.6289 19.3239 10.7531 19.1906L14.2395 15.7031H2.8125C2.62602 15.7031 2.44718 15.629 2.31532 15.4972C2.18345 15.3653 2.10938 15.1865 2.10938 15C2.10938 14.8135 2.18345 14.6347 2.31532 14.5028C2.44718 14.371 2.62602 14.2969 2.8125 14.2969H14.2395L10.7531 10.8094C10.6289 10.6761 10.5613 10.4998 10.5645 10.3176C10.5677 10.1355 10.6415 9.96168 10.7704 9.83285C10.8992 9.70403 11.073 9.63024 11.2551 9.62702C11.4373 9.62381 11.6136 9.69143 11.7469 9.81563L16.4344 14.5031C16.566 14.635 16.64 14.8137 16.64 15C16.64 15.1863 16.566 15.365 16.4344 15.4969ZM23.4375 3.98438H15.9375C15.751 3.98438 15.5722 4.05845 15.4403 4.19032C15.3085 4.32218 15.2344 4.50102 15.2344 4.6875C15.2344 4.87398 15.3085 5.05282 15.4403 5.18468C15.5722 5.31655 15.751 5.39062 15.9375 5.39062H22.7344V24.6094H15.9375C15.751 24.6094 15.5722 24.6835 15.4403 24.8153C15.3085 24.9472 15.2344 25.126 15.2344 25.3125C15.2344 25.499 15.3085 25.6778 15.4403 25.8097C15.5722 25.9415 15.751 26.0156 15.9375 26.0156H23.4375C23.624 26.0156 23.8028 25.9415 23.9347 25.8097C24.0665 25.6778 24.1406 25.499 24.1406 25.3125V4.6875C24.1406 4.50102 24.0665 4.32218 23.9347 4.19032C23.8028 4.05845 23.624 3.98438 23.4375 3.98438Z" fill="#2B2D42"/>
</svg>
