<svg width="20" height="23" viewBox="0 0 20 23" fill="none" xmlns="http://www.w3.org/2000/svg">
<path d="M0 19.55V17.25H2.5V9.2C2.5 7.60917 3.02083 6.20042 4.0625 4.97375C5.10417 3.72792 6.45833 2.91333 8.125 2.53V1.725C8.125 1.24583 8.30209 0.843333 8.65625 0.517499C9.03125 0.1725 9.47917 0 10 0C10.5208 0 10.9583 0.1725 11.3125 0.517499C11.6875 0.843333 11.875 1.24583 11.875 1.725V2.53C13.5417 2.91333 14.8958 3.72792 15.9375 4.97375C16.9792 6.20042 17.5 7.60917 17.5 9.2V17.25H20V19.55H0ZM10 23C9.3125 23 8.71875 22.7796 8.21875 22.3387C7.73959 21.8787 7.5 21.3325 7.5 20.7H12.5C12.5 21.3325 12.25 21.8787 11.75 22.3387C11.2708 22.7796 10.6875 23 10 23ZM5 17.25H15V9.2C15 7.935 14.5104 6.85208 13.5313 5.95125C12.5521 5.05042 11.375 4.6 10 4.6C8.625 4.6 7.44792 5.05042 6.46875 5.95125C5.48958 6.85208 5 7.935 5 9.2V17.25Z" fill="#2B2D42"/>
</svg>
