<svg width="24" height="24" viewBox="0 0 24 24" fill="none" xmlns="http://www.w3.org/2000/svg">
<path d="M12 18.6345C12.262 18.6345 12.4815 18.546 12.6585 18.369C12.8345 18.192 12.9225 17.973 12.9225 17.712C12.9225 17.451 12.834 17.2315 12.657 17.0535C12.48 16.8755 12.261 16.787 12 16.788C11.739 16.789 11.52 16.8775 11.343 17.0535C11.166 17.2295 11.0775 17.449 11.0775 17.712C11.0775 17.975 11.166 18.194 11.343 18.369C11.52 18.544 11.739 18.6325 12 18.6345ZM12 14.193C12.214 14.193 12.3925 14.121 12.5355 13.977C12.6785 13.833 12.75 13.6545 12.75 13.4415V5.8275C12.75 5.6145 12.678 5.436 12.534 5.292C12.39 5.148 12.2115 5.0765 11.9985 5.0775C11.7855 5.0785 11.6075 5.15 11.4645 5.292C11.3215 5.434 11.25 5.6125 11.25 5.8275V13.443C11.25 13.655 11.322 13.833 11.466 13.977C11.61 14.121 11.7885 14.193 12.0015 14.193M8.016 24C7.685 24 7.369 23.935 7.068 23.805C6.767 23.675 6.508 23.5005 6.291 23.2815L0.72 17.709C0.503 17.492 0.329 17.233 0.198 16.932C0.0669999 16.631 0.001 16.315 0 15.984V8.016C0 7.685 0.0650002 7.369 0.195 7.068C0.325 6.767 0.4995 6.508 0.7185 6.291L6.291 0.72C6.508 0.502 6.767 0.328 7.068 0.198C7.369 0.068 7.685 0.002 8.016 0H15.984C16.315 0 16.631 0.0650002 16.932 0.195C17.233 0.325 17.492 0.4995 17.709 0.7185L23.2815 6.291C23.4995 6.508 23.6735 6.767 23.8035 7.068C23.9335 7.369 23.999 7.685 24 8.016V15.984C24 16.315 23.935 16.631 23.805 16.932C23.675 17.233 23.5005 17.492 23.2815 17.709L17.709 23.2815C17.492 23.4995 17.233 23.6735 16.932 23.8035C16.631 23.9335 16.315 23.999 15.984 24H8.016ZM7.65 22.5H16.35L22.5 16.35V7.65L16.35 1.5H7.65L1.5 7.65V16.35L7.65 22.5Z" fill="#EDF2F4"/>
</svg>
