<svg width="30" height="30" viewBox="0 0 30 30" fill="none" xmlns="http://www.w3.org/2000/svg">
<path d="M13.8281 25.3125C13.8281 25.499 13.754 25.6778 13.6222 25.8097C13.4903 25.9415 13.3115 26.0156 13.125 26.0156H5.625C5.43852 26.0156 5.25968 25.9415 5.12782 25.8097C4.99595 25.6778 4.92188 25.499 4.92188 25.3125V4.6875C4.92188 4.50102 4.99595 4.32218 5.12782 4.19032C5.25968 4.05845 5.43852 3.98438 5.625 3.98438H13.125C13.3115 3.98438 13.4903 4.05845 13.6222 4.19032C13.754 4.32218 13.8281 4.50102 13.8281 4.6875C13.8281 4.87398 13.754 5.05282 13.6222 5.18468C13.4903 5.31655 13.3115 5.39062 13.125 5.39062H6.32812V24.6094H13.125C13.3115 24.6094 13.4903 24.6835 13.6222 24.8153C13.754 24.9472 13.8281 25.126 13.8281 25.3125ZM26.7469 14.5031L22.0594 9.81563C21.9261 9.69143 21.7498 9.62381 21.5676 9.62702C21.3855 9.63024 21.2117 9.70403 21.0829 9.83285C20.954 9.96168 20.8802 10.1355 20.877 10.3176C20.8738 10.4998 20.9414 10.6761 21.0656 10.8094L24.552 14.2969H13.125C12.9385 14.2969 12.7597 14.371 12.6278 14.5028C12.496 14.6347 12.4219 14.8135 12.4219 15C12.4219 15.1865 12.496 15.3653 12.6278 15.4972C12.7597 15.629 12.9385 15.7031 13.125 15.7031H24.552L21.0656 19.1906C20.9965 19.255 20.9411 19.3326 20.9027 19.4189C20.8643 19.5051 20.8436 19.5982 20.8419 19.6926C20.8403 19.787 20.8576 19.8808 20.893 19.9684C20.9284 20.0559 20.981 20.1355 21.0478 20.2022C21.1145 20.269 21.1941 20.3216 21.2816 20.357C21.3692 20.3924 21.463 20.4097 21.5574 20.4081C21.6518 20.4064 21.7449 20.3857 21.8311 20.3473C21.9174 20.3089 21.995 20.2535 22.0594 20.1844L26.7469 15.4969C26.8785 15.365 26.9525 15.1863 26.9525 15C26.9525 14.8137 26.8785 14.635 26.7469 14.5031Z" fill="#2B2D42"/>
</svg>
