<svg width="24" height="24" viewBox="0 0 24 24" fill="none" xmlns="http://www.w3.org/2000/svg">
<g clip-path="url(#clip0_2168_5480)">
<path d="M6.74414 6.01065V1.74823C6.74414 1.48348 6.84931 1.22958 7.03652 1.04237C7.22372 0.85517 7.47762 0.75 7.74237 0.75H17.4351L23.2448 6.60958V22.2518C23.2448 22.5165 23.1396 22.7704 22.9524 22.9576C22.7652 23.1448 22.5113 23.25 22.2466 23.25H15.7282" stroke="#2B2D42" stroke-width="1.2" stroke-linecap="round" stroke-linejoin="round"/>
<path d="M17.2266 0.77002V5.76115C17.2266 6.02589 17.3318 6.27979 17.519 6.467C17.7062 6.6542 17.9601 6.75937 18.2248 6.75937H23.216" stroke="#2B2D42" stroke-width="1.2" stroke-linecap="round" stroke-linejoin="round"/>
<path d="M19.7719 10.5029H12.7344" stroke="#2B2D42" stroke-width="1.2" stroke-linecap="round" stroke-linejoin="round"/>
<path d="M19.7717 18.4883H16.9766" stroke="#2B2D42" stroke-width="1.2" stroke-linecap="round" stroke-linejoin="round"/>
<path d="M19.7707 14.4956H14.2305" stroke="#2B2D42" stroke-width="1.2" stroke-linecap="round" stroke-linejoin="round"/>
<path d="M0.755859 20.2354L1.50452 23.23H11.9859L12.7346 20.2354" stroke="#2B2D42" stroke-width="1.2" stroke-linecap="round" stroke-linejoin="round"/>
<path d="M9.73988 17.2407H8.24254V14.5754C8.81345 14.2458 9.25965 13.737 9.51193 13.128C9.7642 12.5189 9.80846 11.8437 9.63784 11.2069C9.46722 10.5701 9.09125 10.0075 8.56825 9.60614C8.04525 9.20483 7.40444 8.9873 6.74521 8.9873C6.08598 8.9873 5.44517 9.20483 4.92216 9.60614C4.39916 10.0075 4.02319 10.5701 3.85257 11.2069C3.68195 11.8437 3.72621 12.5189 3.97849 13.128C4.23076 13.737 4.67696 14.2458 5.24787 14.5754V17.2407H3.75053C2.95629 17.2407 2.19459 17.5562 1.63298 18.1178C1.07136 18.6794 0.755859 19.4411 0.755859 20.2354H12.7346C12.7346 19.4411 12.4191 18.6794 11.8575 18.1178C11.2959 17.5562 10.5342 17.2407 9.73988 17.2407Z" stroke="#2B2D42" stroke-width="1.2" stroke-linecap="round" stroke-linejoin="round"/>
</g>
<defs>
<clipPath id="clip0_2168_5480">
<rect width="24" height="24" fill="white"/>
</clipPath>
</defs>
</svg>
