<svg width="24" height="24" viewBox="0 0 24 24" fill="none" xmlns="http://www.w3.org/2000/svg">
<g clip-path="url(#clip0_2168_5490)">
<path d="M0.5 12C0.5 13.5102 0.797456 15.0056 1.37539 16.4009C1.95331 17.7961 2.8004 19.0639 3.86827 20.1317C4.93615 21.1996 6.2039 22.0467 7.59914 22.6246C8.99438 23.2025 10.4898 23.5 12 23.5C13.5102 23.5 15.0056 23.2025 16.4009 22.6246C17.7961 22.0467 19.0639 21.1996 20.1317 20.1317C21.1996 19.0639 22.0467 17.7961 22.6246 16.4009C23.2025 15.0056 23.5 13.5102 23.5 12C23.5 10.4898 23.2025 8.99438 22.6246 7.59914C22.0467 6.2039 21.1996 4.93615 20.1317 3.86827C19.0639 2.8004 17.7961 1.95331 16.4009 1.37539C15.0056 0.797456 13.5102 0.5 12 0.5C10.4898 0.5 8.99438 0.797456 7.59914 1.37539C6.2039 1.95331 4.93615 2.8004 3.86827 3.86827C2.8004 4.93615 1.95331 6.2039 1.37539 7.59914C0.797456 8.99438 0.5 10.4898 0.5 12Z" stroke="#2B2D42" stroke-width="1.3" stroke-linecap="round" stroke-linejoin="round"/>
<path d="M8.22852 5.46704C7.08183 6.12921 6.12962 7.08153 5.46759 8.2283C4.80556 9.37507 4.45703 10.6759 4.45703 12C4.45703 13.3242 4.80556 14.625 5.46759 15.7718C6.12962 16.9186 7.08183 17.8709 8.22852 18.533" stroke="#2B2D42" stroke-width="1.3" stroke-linecap="round" stroke-linejoin="round"/>
<path d="M15.7715 18.533C16.9182 17.8709 17.8704 16.9186 18.5324 15.7718C19.1944 14.625 19.543 13.3242 19.543 12C19.543 10.6759 19.1944 9.37507 18.5324 8.2283C17.8704 7.08153 16.9182 6.12921 15.7715 5.46704" stroke="#2B2D42" stroke-width="1.3" stroke-linecap="round" stroke-linejoin="round"/>
<path d="M14.1557 7.68994H12.0007C11.7177 7.68994 11.4375 7.74568 11.176 7.85398C10.9146 7.96228 10.677 8.12102 10.4769 8.32113C10.2768 8.52124 10.118 8.7588 10.0097 9.02026C9.90144 9.28172 9.8457 9.56194 9.8457 9.84494C9.8457 10.1279 9.90144 10.4082 10.0097 10.6696C10.118 10.9311 10.2768 11.1686 10.4769 11.3688C10.677 11.5689 10.9146 11.7276 11.176 11.8359C11.4375 11.9442 11.7177 11.9999 12.0007 11.9999C12.5722 11.9999 13.1204 12.227 13.5245 12.6311C13.9287 13.0353 14.1557 13.5834 14.1557 14.1549C14.1557 14.7265 13.9287 15.2746 13.5245 15.6788C13.1204 16.0829 12.5722 16.3099 12.0007 16.3099H9.8457" stroke="#2B2D42" stroke-width="1.3" stroke-linecap="round" stroke-linejoin="round"/>
<path d="M12 7.68989V5.53589" stroke="#2B2D42" stroke-width="1.3" stroke-linecap="round" stroke-linejoin="round"/>
<path d="M12 18.4641V16.3101" stroke="#2B2D42" stroke-width="1.3" stroke-linecap="round" stroke-linejoin="round"/>
</g>
<defs>
<clipPath id="clip0_2168_5490">
<rect width="24" height="24" fill="white"/>
</clipPath>
</defs>
</svg>
