<svg width="24" height="24" viewBox="0 0 24 24" fill="none" xmlns="http://www.w3.org/2000/svg">
<g clip-path="url(#clip0_1091_11247)">
<path d="M0.5 12C0.5 13.5102 0.797456 15.0056 1.37539 16.4009C1.95331 17.7961 2.8004 19.0639 3.86827 20.1317C4.93615 21.1996 6.2039 22.0467 7.59914 22.6246C8.99438 23.2025 10.4898 23.5 12 23.5C13.5102 23.5 15.0056 23.2025 16.4009 22.6246C17.7961 22.0467 19.0639 21.1996 20.1317 20.1317C21.1996 19.0639 22.0467 17.7961 22.6246 16.4009C23.2025 15.0056 23.5 13.5102 23.5 12C23.5 10.4898 23.2025 8.99438 22.6246 7.59914C22.0467 6.2039 21.1996 4.93615 20.1317 3.86827C19.0639 2.8004 17.7961 1.95331 16.4009 1.37539C15.0056 0.797456 13.5102 0.5 12 0.5C10.4898 0.5 8.99438 0.797456 7.59914 1.37539C6.2039 1.95331 4.93615 2.8004 3.86827 3.86827C2.8004 4.93615 1.95331 6.2039 1.37539 7.59914C0.797456 8.99438 0.5 10.4898 0.5 12Z" stroke="#EDF2F4" stroke-width="1.3" stroke-linecap="round" stroke-linejoin="round"/>
<path d="M8.22901 5.46701C7.08231 6.12917 6.13011 7.08149 5.46808 8.22827C4.80605 9.37504 4.45752 10.6759 4.45752 12C4.45752 13.3242 4.80605 14.625 5.46808 15.7718C6.13011 16.9185 7.08231 17.8708 8.22901 18.533" stroke="#EDF2F4" stroke-width="1.3" stroke-linecap="round" stroke-linejoin="round"/>
<path d="M15.771 18.533C16.9177 17.8708 17.8699 16.9185 18.5319 15.7718C19.194 14.625 19.5425 13.3242 19.5425 12C19.5425 10.6759 19.194 9.37504 18.5319 8.22827C17.8699 7.08149 16.9177 6.12917 15.771 5.46701" stroke="#EDF2F4" stroke-width="1.3" stroke-linecap="round" stroke-linejoin="round"/>
<path d="M14.155 7.69H12C11.717 7.69 11.4367 7.74574 11.1753 7.85404C10.9138 7.96234 10.6763 8.12108 10.4762 8.32119C10.276 8.5213 10.1173 8.75886 10.009 9.02032C9.90071 9.28178 9.84497 9.562 9.84497 9.845C9.84497 10.128 9.90071 10.4082 10.009 10.6697C10.1173 10.9311 10.276 11.1687 10.4762 11.3688C10.6763 11.5689 10.9138 11.7277 11.1753 11.836C11.4367 11.9443 11.717 12 12 12C12.5715 12 13.1196 12.227 13.5238 12.6312C13.9279 13.0353 14.155 13.5835 14.155 14.155C14.155 14.7265 13.9279 15.2747 13.5238 15.6788C13.1196 16.083 12.5715 16.31 12 16.31H9.84497" stroke="#EDF2F4" stroke-width="1.3" stroke-linecap="round" stroke-linejoin="round"/>
<path d="M12 7.69001V5.53601" stroke="#EDF2F4" stroke-width="1.3" stroke-linecap="round" stroke-linejoin="round"/>
<path d="M12 18.464V16.31" stroke="#EDF2F4" stroke-width="1.3" stroke-linecap="round" stroke-linejoin="round"/>
</g>
<defs>
<clipPath id="clip0_1091_11247">
<rect width="24" height="24" fill="white"/>
</clipPath>
</defs>
</svg>
